<mxfile host="app.diagrams.net" modified="2023-03-05T14:02:51.403Z" agent="5.0 (Windows NT 10.0; Win64; x64) AppleWebKit/537.36 (KHTML, like Gecko) Chrome/111.0.0.0 Safari/537.36 Edg/111.0.0.0" etag="9K1EY7Fdl2I5j0cWt7Pz" version="21.0.2" type="github">
  <diagram name="Page-1" id="G6O2Isfk2orpkbd-M5PW">
    <mxGraphModel dx="1242" dy="653" grid="1" gridSize="10" guides="1" tooltips="1" connect="1" arrows="1" fold="1" page="1" pageScale="1" pageWidth="827" pageHeight="1169" math="0" shadow="0">
      <root>
        <mxCell id="0" />
        <mxCell id="1" parent="0" />
        <mxCell id="kaM547wBiPYFq-wm83X6-6" style="edgeStyle=orthogonalEdgeStyle;rounded=0;orthogonalLoop=1;jettySize=auto;html=1;" edge="1" parent="1" source="kaM547wBiPYFq-wm83X6-1" target="kaM547wBiPYFq-wm83X6-2">
          <mxGeometry relative="1" as="geometry" />
        </mxCell>
        <mxCell id="kaM547wBiPYFq-wm83X6-7" style="edgeStyle=orthogonalEdgeStyle;rounded=0;orthogonalLoop=1;jettySize=auto;html=1;entryX=0;entryY=0.5;entryDx=0;entryDy=0;" edge="1" parent="1" source="kaM547wBiPYFq-wm83X6-1" target="kaM547wBiPYFq-wm83X6-4">
          <mxGeometry relative="1" as="geometry" />
        </mxCell>
        <mxCell id="kaM547wBiPYFq-wm83X6-8" style="edgeStyle=orthogonalEdgeStyle;rounded=0;orthogonalLoop=1;jettySize=auto;html=1;entryX=0;entryY=0.667;entryDx=0;entryDy=0;entryPerimeter=0;" edge="1" parent="1" source="kaM547wBiPYFq-wm83X6-1" target="kaM547wBiPYFq-wm83X6-5">
          <mxGeometry relative="1" as="geometry" />
        </mxCell>
        <mxCell id="kaM547wBiPYFq-wm83X6-10" style="edgeStyle=orthogonalEdgeStyle;rounded=0;orthogonalLoop=1;jettySize=auto;html=1;exitX=0.5;exitY=0.5;exitDx=0;exitDy=0;exitPerimeter=0;entryX=0;entryY=0.5;entryDx=0;entryDy=0;" edge="1" parent="1" source="kaM547wBiPYFq-wm83X6-1" target="kaM547wBiPYFq-wm83X6-9">
          <mxGeometry relative="1" as="geometry" />
        </mxCell>
        <mxCell id="kaM547wBiPYFq-wm83X6-12" style="edgeStyle=orthogonalEdgeStyle;rounded=0;orthogonalLoop=1;jettySize=auto;html=1;exitX=0.5;exitY=0.5;exitDx=0;exitDy=0;exitPerimeter=0;entryX=0;entryY=0.5;entryDx=0;entryDy=0;" edge="1" parent="1" source="kaM547wBiPYFq-wm83X6-1" target="kaM547wBiPYFq-wm83X6-11">
          <mxGeometry relative="1" as="geometry" />
        </mxCell>
        <mxCell id="kaM547wBiPYFq-wm83X6-1" value="Customer" style="shape=umlActor;verticalLabelPosition=bottom;verticalAlign=top;html=1;outlineConnect=0;" vertex="1" parent="1">
          <mxGeometry x="110" y="110" width="30" height="60" as="geometry" />
        </mxCell>
        <mxCell id="kaM547wBiPYFq-wm83X6-2" value="Inquire about tour packages" style="ellipse;whiteSpace=wrap;html=1;" vertex="1" parent="1">
          <mxGeometry x="330" y="102.5" width="150" height="75" as="geometry" />
        </mxCell>
        <mxCell id="kaM547wBiPYFq-wm83X6-4" value="Book a package" style="ellipse;whiteSpace=wrap;html=1;" vertex="1" parent="1">
          <mxGeometry x="330" y="295" width="150" height="75" as="geometry" />
        </mxCell>
        <mxCell id="kaM547wBiPYFq-wm83X6-5" value="Provide feedback" style="ellipse;whiteSpace=wrap;html=1;" vertex="1" parent="1">
          <mxGeometry x="330" y="500" width="150" height="75" as="geometry" />
        </mxCell>
        <mxCell id="kaM547wBiPYFq-wm83X6-9" value="Cancel Package" style="ellipse;whiteSpace=wrap;html=1;" vertex="1" parent="1">
          <mxGeometry x="330" y="395" width="150" height="75" as="geometry" />
        </mxCell>
        <mxCell id="kaM547wBiPYFq-wm83X6-11" value="Customize packages" style="ellipse;whiteSpace=wrap;html=1;" vertex="1" parent="1">
          <mxGeometry x="330" y="200" width="150" height="75" as="geometry" />
        </mxCell>
      </root>
    </mxGraphModel>
  </diagram>
</mxfile>
